<?xml version="1.0" standalone="no"?>
<!DOCTYPE svg PUBLIC "-//W3C//DTD SVG 20010904//EN"
 "http://www.w3.org/TR/2001/REC-SVG-20010904/DTD/svg10.dtd">
<svg version="1.0" xmlns="http://www.w3.org/2000/svg"
 width="1048.000000pt" height="480.000000pt" viewBox="0 0 1048.000000 480.000000"
 preserveAspectRatio="xMidYMid meet">

<g transform="translate(0.000000,480.000000) scale(0.100000,-0.100000)"
fill="#FE9219" stroke="none">
<path d="M3962 2878 l3 -853 24 -60 c75 -187 218 -311 406 -350 103 -22 1147
-22 1250 0 188 39 331 163 406 350 l24 60 3 853 3 852 -1061 0 -1061 0 3 -852z
m508 407 l0 -75 95 0 95 0 0 75 0 75 55 0 55 0 0 -200 0 -200 -55 0 -55 0 0
80 0 80 -95 0 -95 0 0 -80 0 -80 -55 0 -55 0 0 200 0 200 55 0 55 0 0 -75z
m730 35 l0 -40 -130 0 -130 0 0 -40 0 -40 115 0 115 0 0 -40 0 -40 -115 0
-115 0 0 -40 0 -40 130 0 130 0 0 -40 0 -40 -180 0 -180 0 0 200 0 200 180 0
180 0 0 -40z m478 -2 l-3 -43 -72 -3 -73 -3 0 -154 0 -155 -55 0 -55 0 0 155
0 155 -75 0 -75 0 0 45 0 45 206 0 205 0 -3 -42z m-997 -434 c36 -18 62 -73
53 -109 -3 -14 -17 -34 -31 -45 l-24 -19 25 -16 c29 -20 49 -73 41 -108 -17
-65 -81 -86 -262 -87 l-123 0 0 200 0 200 145 0 c113 0 153 -4 176 -16z m241
-111 c3 -71 10 -138 16 -150 14 -25 67 -43 105 -36 53 10 62 33 65 179 l4 134
55 0 55 0 -4 -142 c-2 -121 -6 -148 -23 -177 -62 -105 -275 -110 -349 -8 -19
25 -21 46 -24 178 l-3 149 49 0 49 0 5 -127z m719 89 c40 -45 41 -102 1 -142
l-29 -28 23 -19 c18 -15 23 -31 28 -95 l6 -78 -50 0 c-45 0 -52 3 -60 26 -6
14 -10 43 -10 65 0 34 -4 41 -27 50 -15 5 -50 9 -77 7 l-51 -3 -3 -72 -3 -73
-49 0 -50 0 0 201 0 200 161 -3 161 -3 29 -33z m-911 -452 l0 -40 -135 0 -135
0 0 -35 0 -34 118 -3 117 -3 0 -40 0 -40 -117 -3 -118 -3 0 -34 0 -35 135 0
135 0 0 -45 0 -45 -185 0 -185 0 0 200 0 200 185 0 185 0 0 -40z m427 -143
c40 -100 75 -190 79 -199 5 -16 -1 -18 -45 -18 -52 0 -52 0 -71 45 l-19 45
-84 0 -84 0 -17 -45 c-18 -45 -18 -45 -67 -45 -27 0 -49 4 -49 10 0 5 34 95
76 200 l76 190 67 0 66 0 72 -183z m225 49 c2 -112 6 -137 21 -154 25 -27 71
-35 112 -18 44 19 55 58 55 199 l0 107 55 0 55 0 -1 -102 c0 -128 -10 -192
-36 -226 -73 -100 -288 -95 -348 8 -17 30 -21 57 -23 178 l-4 142 55 0 55 0 4
-134z"/>
<path d="M4460 2785 l0 -36 83 3 82 3 0 30 0 30 -82 3 -83 3 0 -36z"/>
<path d="M4460 2630 l0 -41 88 3 c82 3 87 4 90 26 6 42 -14 52 -99 52 l-79 0
0 -40z"/>
<path d="M5390 2775 l0 -45 73 0 c77 0 97 9 97 45 0 36 -20 45 -97 45 l-73 0
0 -45z"/>
<path d="M4991 2291 c-11 -32 -21 -61 -21 -65 0 -3 23 -6 51 -6 45 0 50 2 44
18 -4 9 -14 36 -22 59 -8 24 -18 45 -23 48 -4 2 -17 -22 -29 -54z"/>
</g>
</svg>
